<svg width="418" height="205" viewBox="0 0 418 205" fill="none" xmlns="http://www.w3.org/2000/svg">
<g clip-path="url(#clip0_51_36)">
<mask id="mask0_51_36" style="mask-type:alpha" maskUnits="userSpaceOnUse" x="0" y="0" width="418" height="205">
<path d="M0.985413 20.3244H417.593V34.6787H0.985413V20.3244Z" fill="#D9D9D9"/>
<path d="M0.985413 0.575974H417.593V10.4007H0.985413V0.575974Z" fill="#D9D9D9"/>
<path d="M0.985413 44.6024H417.593V58.9568H0.985413V44.6024Z" fill="#D9D9D9"/>
<path d="M0.985413 165.993H417.593V180.347H0.985413V165.993Z" fill="#D9D9D9"/>
<path d="M0.985413 68.8805H417.593V83.2348H0.985413V68.8805Z" fill="#D9D9D9"/>
<path d="M0.985413 93.1585H417.593V107.513H0.985413V93.1585Z" fill="#D9D9D9"/>
<path d="M0.985413 117.437H417.593V131.791H0.985413V117.437Z" fill="#D9D9D9"/>
<path d="M0.985413 141.715H417.593V156.069H0.985413V141.715Z" fill="#D9D9D9"/>
<path d="M0.985413 190.271H417.593V204.625H0.985413V190.271Z" fill="#D9D9D9"/>
</mask>
<g mask="url(#mask0_51_36)">
<path d="M0.985413 206.655V5.6356C0.985413 2.87417 3.22399 0.635605 5.98541 0.635605H145.756V48.6069H61.5206V88.2974H137.761V133.699H61.5206V201.655C61.5206 204.416 59.282 206.655 56.5206 206.655H0.985413Z" fill="white"/>
<path d="M183.162 206.655V5.6356C183.162 2.87417 185.401 0.635605 188.162 0.635605H275.25C323.506 0.635605 353.917 30.0466 353.917 75.7335V76.019C353.917 121.706 323.506 150.403 275.25 150.403H243.697V201.655C243.697 204.416 241.459 206.655 238.697 206.655H183.162ZM260.83 46.1798H243.697V105.716H260.83C280.818 105.716 292.811 95.7215 292.811 76.019V75.7335C292.811 56.031 280.818 46.1798 260.83 46.1798Z" fill="white"/>
<path d="M385.898 206.553C366.766 206.553 354.202 193.703 354.202 175.571C354.202 157.582 366.766 144.59 385.898 144.59C405.029 144.59 417.593 157.582 417.593 175.571C417.593 193.703 405.029 206.553 385.898 206.553Z" fill="white"/>
</g>
</g>
<defs>
<clipPath id="clip0_51_36">
<rect width="418" height="205" fill="white"/>
</clipPath>
</defs>
</svg>
